<svg id="icons" enable-background="new 0 0 64 64" height="512" viewBox="0 0 64 64" width="512" xmlns="http://www.w3.org/2000/svg"><path d="m63 9h-62v-2c0-1.11.89-2 2-2h58c1.11 0 2 .89 2 2z" fill="#d7e9ff"/><path d="m43 27h16v23h-16zm12 17.5c0-.83-.67-1.5-1.5-1.5h-5c-.83 0-1.5.67-1.5 1.5 0 .82.67 1.5 1.5 1.5h5c.83 0 1.5-.68 1.5-1.5z" fill="#d7e9ff"/><path d="m53.5 43c.83 0 1.5.67 1.5 1.5 0 .82-.67 1.5-1.5 1.5h-5c-.83 0-1.5-.68-1.5-1.5 0-.83.67-1.5 1.5-1.5z" fill="#94c1ff"/><path d="m24 22h16v33h-16zm12 27.5c0-.83-.67-1.5-1.5-1.5h-5c-.83 0-1.5.67-1.5 1.5s.67 1.5 1.5 1.5h5c.83 0 1.5-.67 1.5-1.5z" fill="#d7e9ff"/><path d="m34.5 51h-5c-.83 0-1.5-.67-1.5-1.5s.67-1.5 1.5-1.5h5c.83 0 1.5.67 1.5 1.5s-.67 1.5-1.5 1.5z" fill="#94c1ff"/><path d="m15.5 43c.83 0 1.5.67 1.5 1.5 0 .82-.67 1.5-1.5 1.5h-5c-.83 0-1.5-.68-1.5-1.5 0-.83.67-1.5 1.5-1.5z" fill="#94c1ff"/><path d="m5 27h16v23h-16zm12 17.5c0-.83-.67-1.5-1.5-1.5h-5c-.83 0-1.5.67-1.5 1.5 0 .82.67 1.5 1.5 1.5h5c.83 0 1.5-.68 1.5-1.5z" fill="#d7e9ff"/><path d="m43 27v23h16v-23zm-22 0h-16v23h16zm3-5v33h16v-33zm39-13v50h-62v-50z" fill="#fff"/><g fill="#116fff"><path d="m1 7.998c-.553 0-1-.448-1-1 0-1.654 1.346-3 3-3 .553 0 1 .448 1 1s-.447 1-1 1c-.552 0-1 .449-1 1 0 .552-.447 1-1 1z"/><path d="m63 7.998c-.553 0-1-.448-1-1 0-.551-.448-1-1-1-.553 0-1-.448-1-1s.447-1 1-1c1.654 0 3 1.346 3 3 0 .552-.447 1-1 1z"/><path d="m61 5.998h-58c-.553 0-1-.448-1-1s.447-1 1-1h58c.553 0 1 .448 1 1s-.447 1-1 1z"/><path d="m4.03 7.998c-.553 0-1.005-.448-1.005-1s.442-1 .994-1h.011c.552 0 1 .448 1 1s-.448 1-1 1z"/><path d="m7.029 7.998c-.553 0-1.005-.448-1.005-1s.442-1 .994-1h.011c.552 0 1 .448 1 1s-.448 1-1 1z"/><path d="m10.032 7.998c-.553 0-1.005-.448-1.005-1s.442-1 .994-1h.011c.552 0 1 .448 1 1s-.448 1-1 1z"/><path d="m1 60.002c-.553 0-1-.447-1-1v-52.004c0-.552.447-1 1-1s1 .448 1 1v52.004c0 .553-.447 1-1 1z"/><path d="m63 60.002c-.553 0-1-.447-1-1v-52.004c0-.552.447-1 1-1s1 .448 1 1v52.004c0 .553-.447 1-1 1z"/><path d="m63 9.998h-62c-.553 0-1-.448-1-1s.447-1 1-1h62c.553 0 1 .448 1 1s-.447 1-1 1z"/><path d="m63 60.002h-62c-.553 0-1-.447-1-1s.447-1 1-1h62c.553 0 1 .447 1 1s-.447 1-1 1z"/><path d="m21.001 51.002h-16c-.553 0-1-.447-1-1v-23c0-.552.447-1 1-1h16c.553 0 1 .448 1 1v23c0 .553-.447 1-1 1zm-15-2h14v-21h-14z"/><path d="m58.999 51.002h-16c-.553 0-1-.447-1-1v-23c0-.552.447-1 1-1h16c.553 0 1 .448 1 1v23c0 .553-.447 1-1 1zm-15-2h14v-21h-14z"/><path d="m39.999 56.007h-16c-.553 0-1-.447-1-1v-33.008c0-.552.447-1 1-1h16c.553 0 1 .448 1 1v33.008c0 .553-.447 1-1 1zm-15-2h14v-31.008h-14z"/><path d="m51.002 15.002h-38c-.553 0-1-.448-1-1s.447-1 1-1h38c.553 0 1 .448 1 1s-.447 1-1 1z"/><path d="m44.002 18.001h-24c-.553 0-1-.448-1-1s.447-1 1-1h24c.553 0 1 .448 1 1s-.447 1-1 1z"/><path d="m12.999 31.998h-4c-.553 0-1-.448-1-1s.447-1 1-1h4c.553 0 1 .448 1 1s-.447 1-1 1z"/><path d="m17 30.998h-1c-.553 0-1-.448-1-1s.447-1 1-1h1c.553 0 1 .448 1 1s-.447 1-1 1z"/><path d="m17.001 32.998c-.367 0-.72-.202-.896-.553l-1-2c-.247-.494-.047-1.095.447-1.342.493-.248 1.095-.046 1.342.447l1 2c.247.494.047 1.095-.447 1.342-.143.072-.296.106-.446.106z"/><path d="m17 32.998h-1c-.553 0-1-.448-1-1s.447-1 1-1h1c.553 0 1 .448 1 1s-.447 1-1 1z"/><path d="m9.031 39.997c-.553 0-1.005-.447-1.005-1s.442-1 .994-1h.011c.552 0 1 .447 1 1s-.448 1-1 1z"/><path d="m16.995 39.997h-4.994c-.553 0-1-.447-1-1s.447-1 1-1h4.994c.553 0 1 .447 1 1s-.447 1-1 1z"/><path d="m9.031 36.996c-.553 0-1.005-.447-1.005-1s.442-1 .994-1h.011c.552 0 1 .447 1 1s-.448 1-1 1z"/><path d="m16.995 36.996h-4.994c-.553 0-1-.447-1-1s.447-1 1-1h4.994c.553 0 1 .447 1 1s-.447 1-1 1z"/><path d="m15.501 46.998h-5.002c-.553 0-1-.447-1-1s.447-1 1-1h5.002c.553 0 1 .447 1 1s-.447 1-1 1z"/><path d="m15.501 43.998h-5.002c-.553 0-1-.447-1-1s.447-1 1-1h5.002c.553 0 1 .447 1 1s-.447 1-1 1z"/><path d="m10.499 46.998c-1.379 0-2.5-1.121-2.5-2.5s1.121-2.5 2.5-2.5c.553 0 1 .447 1 1s-.447 1-1 1c-.275 0-.5.225-.5.5s.225.5.5.5c.553 0 1 .447 1 1s-.447 1-1 1z"/><path d="m15.501 46.998c-.553 0-1-.447-1-1s.447-1 1-1c.275 0 .5-.225.5-.5s-.225-.5-.5-.5c-.553 0-1-.447-1-1s.447-1 1-1c1.379 0 2.5 1.121 2.5 2.5s-1.121 2.5-2.5 2.5z"/><path d="m50.998 31.998h-4c-.553 0-1-.448-1-1s.447-1 1-1h4c.553 0 1 .448 1 1s-.447 1-1 1z"/><path d="m54.999 30.998h-1c-.553 0-1-.448-1-1s.447-1 1-1h1c.553 0 1 .448 1 1s-.447 1-1 1z"/><path d="m55 32.998c-.367 0-.72-.202-.896-.553l-1-2c-.247-.494-.047-1.095.447-1.342.494-.248 1.094-.046 1.342.447l1 2c.247.494.047 1.095-.447 1.342-.143.072-.296.106-.446.106z"/><path d="m54.999 32.998h-1c-.553 0-1-.448-1-1s.447-1 1-1h1c.553 0 1 .448 1 1s-.447 1-1 1z"/><path d="m47.03 39.997c-.553 0-1.005-.447-1.005-1s.442-1 .994-1h.011c.552 0 1 .447 1 1s-.448 1-1 1z"/><path d="m54.994 39.997h-4.994c-.553 0-1-.447-1-1s.447-1 1-1h4.994c.553 0 1 .447 1 1s-.447 1-1 1z"/><path d="m47.03 36.996c-.553 0-1.005-.447-1.005-1s.442-1 .994-1h.011c.552 0 1 .447 1 1s-.448 1-1 1z"/><path d="m54.994 36.996h-4.994c-.553 0-1-.447-1-1s.447-1 1-1h4.994c.553 0 1 .447 1 1s-.447 1-1 1z"/><path d="m53.5 46.998h-5.002c-.553 0-1-.447-1-1s.447-1 1-1h5.002c.553 0 1 .447 1 1s-.447 1-1 1z"/><path d="m53.5 43.998h-5.002c-.553 0-1-.447-1-1s.447-1 1-1h5.002c.553 0 1 .447 1 1s-.447 1-1 1z"/><path d="m48.498 46.998c-1.379 0-2.5-1.121-2.5-2.5s1.121-2.5 2.5-2.5c.553 0 1 .447 1 1s-.447 1-1 1c-.275 0-.5.225-.5.5s.225.5.5.5c.553 0 1 .447 1 1s-.447 1-1 1z"/><path d="m53.5 46.998c-.553 0-1-.447-1-1s.447-1 1-1c.275 0 .5-.225.5-.5s-.225-.5-.5-.5c-.553 0-1-.447-1-1s.447-1 1-1c1.379 0 2.5 1.121 2.5 2.5s-1.121 2.5-2.5 2.5z"/><path d="m31.998 26.996h-4c-.553 0-1-.448-1-1s.447-1 1-1h4c.553 0 1 .448 1 1s-.447 1-1 1z"/><path d="m35.999 25.996h-1c-.553 0-1-.448-1-1s.447-1 1-1h1c.553 0 1 .448 1 1s-.447 1-1 1z"/><path d="m36 27.996c-.367 0-.72-.202-.896-.553l-1-2c-.247-.494-.047-1.095.447-1.342s1.095-.047 1.342.447l1 2c.247.494.047 1.095-.447 1.342-.143.072-.296.106-.446.106z"/><path d="m35.999 27.996h-1c-.553 0-1-.448-1-1s.447-1 1-1h1c.553 0 1 .448 1 1s-.447 1-1 1z"/><path d="m28.03 34.992c-.553 0-1.005-.447-1.005-1s.442-1 .994-1h.011c.552 0 1 .447 1 1s-.448 1-1 1z"/><path d="m35.994 34.992h-4.994c-.553 0-1-.447-1-1s.447-1 1-1h4.994c.553 0 1 .447 1 1s-.447 1-1 1z"/><path d="m28.03 37.992c-.553 0-1.005-.447-1.005-1s.442-1 .994-1h.011c.552 0 1 .447 1 1s-.448 1-1 1z"/><path d="m35.994 37.992h-4.994c-.553 0-1-.447-1-1s.447-1 1-1h4.994c.553 0 1 .447 1 1s-.447 1-1 1z"/><path d="m28.03 40.992c-.553 0-1.005-.447-1.005-1s.442-1 .994-1h.011c.552 0 1 .447 1 1s-.448 1-1 1z"/><path d="m35.994 40.992h-4.994c-.553 0-1-.447-1-1s.447-1 1-1h4.994c.553 0 1 .447 1 1s-.447 1-1 1z"/><path d="m28.03 43.992c-.553 0-1.005-.447-1.005-1s.442-1 .994-1h.011c.552 0 1 .447 1 1s-.448 1-1 1z"/><path d="m35.994 43.992h-4.994c-.553 0-1-.447-1-1s.447-1 1-1h4.994c.553 0 1 .447 1 1s-.447 1-1 1z"/><path d="m28.03 31.992c-.553 0-1.005-.448-1.005-1s.442-1 .994-1h.011c.552 0 1 .448 1 1s-.448 1-1 1z"/><path d="m35.994 31.992h-4.994c-.553 0-1-.448-1-1s.447-1 1-1h4.994c.553 0 1 .448 1 1s-.447 1-1 1z"/><path d="m34.5 52.003h-5.002c-.553 0-1-.447-1-1s.447-1 1-1h5.002c.553 0 1 .447 1 1s-.447 1-1 1z"/><path d="m34.5 49.003h-5.002c-.553 0-1-.447-1-1s.447-1 1-1h5.002c.553 0 1 .447 1 1s-.447 1-1 1z"/><path d="m29.498 52.003c-1.379 0-2.5-1.121-2.5-2.5s1.121-2.5 2.5-2.5c.553 0 1 .447 1 1s-.447 1-1 1c-.275 0-.5.225-.5.5s.225.5.5.5c.553 0 1 .447 1 1s-.447 1-1 1z"/><path d="m34.5 52.003c-.553 0-1-.447-1-1s.447-1 1-1c.275 0 .5-.225.5-.5s-.225-.5-.5-.5c-.553 0-1-.447-1-1s.447-1 1-1c1.379 0 2.5 1.121 2.5 2.5s-1.121 2.5-2.5 2.5z"/></g></svg>